<svg width="24" height="24" viewBox="0 0 24 24" fill="none" xmlns="http://www.w3.org/2000/svg">
<g id="Icon / basket">
<g id="icon">
<path d="M20.9999 8.99991H19.5799L15.8679 2.50391L14.1319 3.49591L17.2769 8.99991H6.7229L9.8689 3.49591L8.1319 2.50391L4.4199 8.99991H2.9999C2.84619 9.00008 2.69459 9.03564 2.55685 9.10384C2.4191 9.17204 2.29891 9.27104 2.2056 9.39318C2.11228 9.51531 2.04834 9.65729 2.01874 9.80812C1.98914 9.95894 1.99467 10.1146 2.0349 10.2629L4.8339 20.5269C4.95025 20.9497 5.20201 21.3227 5.55059 21.5887C5.89918 21.8548 6.32538 21.9992 6.7639 21.9999H17.2369C18.1349 21.9999 18.9289 21.3949 19.1669 20.5249L21.9659 10.2619C22.0066 10.1135 22.0124 9.95771 21.983 9.80668C21.9535 9.65565 21.8895 9.51348 21.7959 9.39129C21.7024 9.2691 21.5819 9.17019 21.4438 9.1023C21.3057 9.0344 21.1538 8.99936 20.9999 8.99991ZM17.2359 19.9999H6.7639L4.3099 10.9999H19.6899L17.2359 19.9999Z" fill="black"/>
<path d="M8.99988 12.9999H10.9999V17.9999H8.99988V12.9999ZM12.9999 12.9999H14.9999V17.9999H12.9999V12.9999Z" fill="black"/>
</g>
</g>
</svg>
